<svg preserveAspectRatio="none" width="100%" height="100%" overflow="visible" style="display: block;" viewBox="0 0 20 20" fill="none" xmlns="http://www.w3.org/2000/svg">
<g id="Container">
<path id="Vector" fill-rule="evenodd" clip-rule="evenodd" d="M18.3333 9.99999C18.3333 14.6025 14.6025 18.3333 10 18.3333C5.3975 18.3333 1.66666 14.6025 1.66666 9.99999C1.66666 5.39749 5.3975 1.66666 10 1.66666C14.6025 1.66666 18.3333 5.39749 18.3333 9.99999ZM7.475 7.47499C7.71901 7.23128 8.11432 7.23128 8.35833 7.47499L10 9.11666L11.6417 7.47499C11.8879 7.24553 12.2717 7.2523 12.5097 7.49031C12.7477 7.72832 12.7545 8.11207 12.525 8.35833L10.8833 9.99999L12.525 11.6417C12.7545 11.8879 12.7477 12.2717 12.5097 12.5097C12.2717 12.7477 11.8879 12.7545 11.6417 12.525L10 10.8833L8.35833 12.525C8.11207 12.7545 7.72832 12.7477 7.49031 12.5097C7.2523 12.2717 7.24553 11.8879 7.475 11.6417L9.11667 9.99999L7.475 8.35833C7.23129 8.11431 7.23129 7.71901 7.475 7.47499Z" fill="var(--fill-0, #EA4335)"/>
</g>
</svg>
