<svg preserveAspectRatio="none" width="100%" height="100%" overflow="visible" style="display: block;" viewBox="0 0 20 20" fill="none" xmlns="http://www.w3.org/2000/svg">
<g id="Container">
<path id="Vector" fill-rule="evenodd" clip-rule="evenodd" d="M6.53583 3.16832C8.22667 2.16749 9.07167 1.66666 10 1.66666C10.9283 1.66666 11.7733 2.16666 13.4642 3.16832L14.0358 3.50666C15.7267 4.50832 16.5717 5.00916 17.0358 5.83332C17.5 6.65832 17.5 7.65832 17.5 9.66166V10.3383C17.5 12.3408 17.5 13.3425 17.0358 14.1667C16.5717 14.9908 15.7267 15.4917 14.0358 16.4925L13.4642 16.8317C11.7733 17.8325 10.9283 18.3333 10 18.3333C9.07167 18.3333 8.22667 17.8333 6.53583 16.8317L5.96417 16.4925C4.27333 15.4925 3.42833 14.9908 2.96417 14.1667C2.5 13.3417 2.5 12.3417 2.5 10.3383V9.66166C2.5 7.65832 2.5 6.65749 2.96417 5.83332C3.42833 5.00916 4.27333 4.50832 5.96417 3.50666L6.53583 3.16832ZM10.8333 13.3333C10.8333 13.7936 10.4602 14.1667 10 14.1667C9.53976 14.1667 9.16667 13.7936 9.16667 13.3333C9.16667 12.8731 9.53976 12.5 10 12.5C10.4602 12.5 10.8333 12.8731 10.8333 13.3333ZM10 5.20832C10.3452 5.20832 10.625 5.48815 10.625 5.83332V10.8333C10.625 11.1785 10.3452 11.4583 10 11.4583C9.65482 11.4583 9.375 11.1785 9.375 10.8333V5.83332C9.375 5.48815 9.65482 5.20832 10 5.20832Z" fill="var(--fill-0, #FBBC04)"/>
</g>
</svg>
