<svg preserveAspectRatio="none" width="100%" height="100%" overflow="visible" style="display: block;" viewBox="0 0 20 20" fill="none" xmlns="http://www.w3.org/2000/svg">
<g id="Container">
<path id="Vector" fill-rule="evenodd" clip-rule="evenodd" d="M18.3333 9.99999C18.3333 14.6025 14.6025 18.3333 10 18.3333C5.3975 18.3333 1.66666 14.6025 1.66666 9.99999C1.66666 5.39749 5.3975 1.66666 10 1.66666C14.6025 1.66666 18.3333 5.39749 18.3333 9.99999ZM13.3583 7.47499C13.602 7.71901 13.602 8.11431 13.3583 8.35833L9.19167 12.525C8.94765 12.7687 8.55235 12.7687 8.30833 12.525L6.64167 10.8583C6.47445 10.7025 6.40562 10.4679 6.46218 10.2464C6.51873 10.025 6.69165 9.85206 6.91309 9.7955C7.13454 9.73895 7.36919 9.80778 7.525 9.97499L8.75 11.2L10.6125 9.33749L12.475 7.47499C12.719 7.23128 13.1143 7.23128 13.3583 7.47499Z" fill="var(--fill-0, #34A853)"/>
</g>
</svg>
