<svg preserveAspectRatio="none" width="100%" height="100%" overflow="visible" style="display: block;" viewBox="0 0 20 20" fill="none" xmlns="http://www.w3.org/2000/svg">
<g id="Container">
<g id="Vector">
<path fill-rule="evenodd" clip-rule="evenodd" d="M9.16667 8.33333H10.8333C12.0117 8.33333 12.6008 8.33333 12.9667 8.7C13.3333 9.06583 13.3333 9.655 13.3333 10.8333V15.8333C13.3333 14.655 13.3333 14.0658 13.7 13.7C14.065 13.3333 14.6542 13.3333 15.8333 13.3333C17.0125 13.3333 17.6008 13.3333 17.9667 13.7C18.3333 14.0658 18.3333 14.655 18.3333 15.8333V18.3333H1.66666C1.66666 17.155 1.66666 16.5658 2.03332 16.2C2.39832 15.8333 2.98749 15.8333 4.16666 15.8333C5.34583 15.8333 5.93416 15.8333 6.3 16.2C6.66666 16.565 6.66666 17.1542 6.66666 18.3333V10.8333C6.66666 9.655 6.66666 9.06583 7.03333 8.7C7.39833 8.33333 7.9875 8.33333 9.16667 8.33333Z" fill="var(--fill-0, #243628)"/>
<path fill-rule="evenodd" clip-rule="evenodd" d="M9.28833 2.51916C9.605 1.94999 9.76333 1.66666 10 1.66666C10.2367 1.66666 10.395 1.94999 10.7117 2.51916L10.7933 2.66582C10.8833 2.82749 10.9283 2.90749 10.9983 2.96082C11.0692 3.01416 11.1567 3.03416 11.3317 3.07332L11.49 3.10999C12.105 3.24916 12.4125 3.31833 12.4858 3.55333C12.5592 3.78833 12.3492 4.03416 11.93 4.52416L11.8217 4.65083C11.7025 4.78999 11.6425 4.85916 11.6158 4.94583C11.5892 5.03249 11.5983 5.12499 11.6158 5.31083L11.6325 5.47999C11.6958 6.13416 11.7275 6.46166 11.5367 6.60666C11.345 6.7525 11.0567 6.61916 10.4808 6.35416L10.3325 6.28583C10.1683 6.21083 10.0867 6.1725 10 6.1725C9.91333 6.1725 9.83167 6.21083 9.6675 6.28583L9.51917 6.35416C8.94333 6.61916 8.655 6.7525 8.46333 6.60666C8.27166 6.46166 8.30416 6.13416 8.3675 5.47999L8.38416 5.31083C8.40166 5.12499 8.41083 5.03249 8.38416 4.94583C8.3575 4.85916 8.2975 4.78999 8.17833 4.65083L8.07 4.52416C7.65083 4.03416 7.44083 3.78916 7.51416 3.55333C7.5875 3.31833 7.895 3.24916 8.51 3.10999L8.66833 3.07332C8.84333 3.03416 8.93083 3.01499 9.00167 2.96082C9.07167 2.90749 9.11667 2.82749 9.20667 2.66582L9.28833 2.51916Z" fill="var(--fill-0, #243628)"/>
</g>
</g>
</svg>
